<?xml version="1.0" encoding="UTF-8"?>
<!DOCTYPE svg PUBLIC "-//W3C//DTD SVG 1.1//EN" "http://www.w3.org/Graphics/SVG/1.1/DTD/svg11.dtd">
<svg xmlns="http://www.w3.org/2000/svg" version="1.1" width="473px" height="89px" style="shape-rendering:geometricPrecision; text-rendering:geometricPrecision; image-rendering:optimizeQuality; fill-rule:evenodd; clip-rule:evenodd" xmlns:xlink="http://www.w3.org/1999/xlink">
<g><path style="opacity:1" fill="#565f1d" d="M 79.5,6.5 C 79.5,5.16667 78.8333,4.5 77.5,4.5C 80.2145,2.76352 83.2145,1.93018 86.5,2C 84.2833,3.72347 81.95,5.22347 79.5,6.5 Z"/></g>
<g><path style="opacity:0.106" fill="#161204" d="M 77.5,7.5 C 77.0269,8.90632 76.0269,9.57298 74.5,9.5C 74.9731,8.09368 75.9731,7.42702 77.5,7.5 Z"/></g>
<g><path style="opacity:1" fill="#d4ec4d" d="M 77.5,4.5 C 78.8333,4.5 79.5,5.16667 79.5,6.5C 79.1583,7.33825 78.4916,7.67158 77.5,7.5C 75.9731,7.42702 74.9731,8.09368 74.5,9.5C 57.6215,19.3873 41.2881,30.054 25.5,41.5C 23.9731,41.427 22.9731,42.0937 22.5,43.5C 21.5041,43.4142 20.6708,43.7476 20,44.5C 19.8281,41.1745 19.9947,37.8411 20.5,34.5C 20.6802,30.4241 21.6802,26.5907 23.5,23C 41.3485,16.3284 59.3485,10.1618 77.5,4.5 Z"/></g>
<g><path style="opacity:0.067" fill="#111111" d="M 88.5,25.5 C 93.3054,24.5128 98.3054,24.1795 103.5,24.5C 103.737,25.791 103.404,26.791 102.5,27.5C 98.2853,25.5636 93.6186,24.8969 88.5,25.5 Z"/></g>
<g><path style="opacity:0.333" fill="#4f0f0f" d="M 254.5,25.5 C 259.975,24.5111 265.642,24.1778 271.5,24.5C 271.768,26.099 271.434,27.4324 270.5,28.5C 270.5,27.5 270.5,26.5 270.5,25.5C 265.167,25.5 259.833,25.5 254.5,25.5 Z"/></g>
<g><path style="opacity:0.404" fill="#42100e" d="M 312.5,25.5 C 310.265,25.2053 308.265,25.5386 306.5,26.5C 305.957,26.44 305.624,26.1067 305.5,25.5C 307.973,24.2031 310.307,24.2031 312.5,25.5 Z"/></g>
<g><path style="opacity:0.267" fill="#420d0c" d="M 437.5,25.5 C 446.318,24.5067 455.318,24.1734 464.5,24.5C 464.768,26.099 464.434,27.4324 463.5,28.5C 463.5,27.5 463.5,26.5 463.5,25.5C 454.833,25.5 446.167,25.5 437.5,25.5 Z"/></g>
<g><path style="opacity:1" fill="#e4e4e4" d="M 88.5,25.5 C 93.6186,24.8969 98.2853,25.5636 102.5,27.5C 102.451,30.0991 101.451,32.2658 99.5,34C 95.9542,35.1737 92.2875,35.8404 88.5,36C 85.8333,37.6667 85.8333,39.3333 88.5,41C 101.136,40.9631 106.636,47.1298 105,59.5C 103.587,63.7482 100.754,66.4148 96.5,67.5C 90.5,67.5 84.5,67.5 78.5,67.5C 78.5,66.1667 78.5,64.8333 78.5,63.5C 78.9156,61.2475 80.249,59.7475 82.5,59C 86.0836,57.9266 89.7502,57.2599 93.5,57C 94.3802,55.6439 94.7135,54.1439 94.5,52.5C 78.7641,52.6165 73.2641,45.2831 78,30.5C 80.5497,26.8083 84.0497,25.1416 88.5,25.5 Z"/></g>
<g><path style="opacity:1" fill="#efefef" d="M 175.5,67.5 C 174.5,67.5 173.5,67.5 172.5,67.5C 172.831,59.1401 172.498,50.8068 171.5,42.5C 170.702,42.9569 170.369,43.6236 170.5,44.5C 168.57,48.1002 165.903,51.1002 162.5,53.5C 159.697,51.2169 157.364,48.5503 155.5,45.5C 155.217,44.7109 154.717,44.0442 154,43.5C 153.501,49.1569 153.334,54.8236 153.5,60.5C 152.908,64.0889 150.908,66.4222 147.5,67.5C 146.167,67.5 144.833,67.5 143.5,67.5C 143.5,55.8333 143.5,44.1667 143.5,32.5C 143.328,31.5084 143.662,30.8417 144.5,30.5C 146.167,29.5 147.5,28.1667 148.5,26.5C 149.997,25.6942 151.664,25.0276 153.5,24.5C 156.86,28.6931 160.027,33.0264 163,37.5C 165.71,33.2467 168.543,29.0801 171.5,25C 175.152,24.5014 178.818,24.3347 182.5,24.5C 182.667,37.1711 182.5,49.8377 182,62.5C 180.841,65.4934 178.675,67.1601 175.5,67.5 Z"/></g>
<g><path style="opacity:1" fill="#f7f7f7" d="M 195.5,25.5 C 196.495,37.3217 196.828,49.3217 196.5,61.5C 196.288,64.7124 194.621,66.7124 191.5,67.5C 190.167,67.5 188.833,67.5 187.5,67.5C 187.5,55.5 187.5,43.5 187.5,31.5C 188.744,27.5881 191.411,25.5881 195.5,25.5 Z"/></g>
<g><path style="opacity:0.38" fill="#5a5a5a" d="M 195.5,25.5 C 195.56,24.9569 195.893,24.6236 196.5,24.5C 197.825,36.9937 197.825,49.327 196.5,61.5C 196.828,49.3217 196.495,37.3217 195.5,25.5 Z"/></g>
<g><path style="opacity:1" fill="#e62d2c" d="M 254.5,25.5 C 259.833,25.5 265.167,25.5 270.5,25.5C 270.5,26.5 270.5,27.5 270.5,28.5C 270.607,30.9032 269.607,32.7365 267.5,34C 263.916,35.0734 260.25,35.7401 256.5,36C 255.009,38.0217 255.342,39.6883 257.5,41C 267.674,40.2477 273.341,44.9144 274.5,55C 273.66,62.3376 269.66,66.5043 262.5,67.5C 257.167,67.5 251.833,67.5 246.5,67.5C 246.5,66.5 246.5,65.5 246.5,64.5C 246.911,60.9209 248.911,58.7542 252.5,58C 255.5,57.6667 258.5,57.3333 261.5,57C 264.167,55.3333 264.167,53.6667 261.5,52C 246.099,51.2705 241.265,43.7705 247,29.5C 248.883,26.9756 251.383,25.6423 254.5,25.5 Z"/></g>
<g><path style="opacity:1" fill="#e62d2c" d="M 286.5,24.5 C 291.772,23.5491 295.272,25.5491 297,30.5C 299.94,42.7593 303.106,54.926 306.5,67C 298.967,69.2265 294.633,66.3932 293.5,58.5C 290.753,58.1866 288.086,58.52 285.5,59.5C 284.058,64.6088 280.725,67.6088 275.5,68.5C 274,68.5472 273,67.8805 272.5,66.5C 275.821,54.215 278.988,41.8817 282,29.5C 283.025,27.313 284.525,25.6464 286.5,24.5 Z M 288.5,41.5 C 289.167,41.8333 289.833,42.1667 290.5,42.5C 290.575,45.2062 290.908,47.8728 291.5,50.5C 290.167,50.5 288.833,50.5 287.5,50.5C 287.963,47.5176 288.296,44.5176 288.5,41.5 Z"/></g>
<g><path style="opacity:1" fill="#e22d2c" d="M 341.5,49.5 C 342.301,51.7929 342.968,51.4596 343.5,48.5C 345.018,41.7643 346.851,35.0977 349,28.5C 352.632,24.591 356.798,23.7577 361.5,26C 357.141,38.7439 352.974,51.5772 349,64.5C 344.667,69.8333 340.333,69.8333 336,64.5C 334.991,62.9751 334.491,61.3084 334.5,59.5C 333.968,56.5404 333.301,56.2071 332.5,58.5C 332.426,63.9077 329.759,67.241 324.5,68.5C 321.812,67.9951 319.645,66.6618 318,64.5C 313.454,52.0298 309.62,39.3631 306.5,26.5C 308.265,25.5386 310.265,25.2053 312.5,25.5C 315.148,25.7385 316.982,27.0718 318,29.5C 320.203,36.4415 322.203,43.4415 324,50.5C 326.632,43.3182 328.966,35.9849 331,28.5C 334.632,24.591 338.798,23.7577 343.5,26C 341.833,30.3333 340.167,34.6667 338.5,39C 340.042,42.3338 341.042,45.8338 341.5,49.5 Z"/></g>
<g><path style="opacity:1" fill="#e22c2c" d="M 392.5,65.5 C 392.5,66.1667 392.5,66.8333 392.5,67.5C 385.439,68.9433 381.439,65.9433 380.5,58.5C 377.833,58.5 375.167,58.5 372.5,58.5C 372.192,64.8076 368.859,68.141 362.5,68.5C 361,68.5472 360,67.8805 359.5,66.5C 362.821,54.215 365.988,41.8817 369,29.5C 371.226,25.1392 374.726,23.6392 379.5,25C 381.667,25.8333 383.167,27.3333 384,29.5C 387.153,41.4429 389.986,53.4429 392.5,65.5 Z M 375.5,42.5 C 376.167,42.5 376.833,42.5 377.5,42.5C 377.575,45.2062 377.908,47.8728 378.5,50.5C 377.167,50.5 375.833,50.5 374.5,50.5C 374.833,47.8333 375.167,45.1667 375.5,42.5 Z"/></g>
<g><path style="opacity:1" fill="#f02f2e" d="M 418.5,46.5 C 418.987,47.4734 419.487,48.4734 420,49.5C 420.499,43.8431 420.666,38.1764 420.5,32.5C 420.871,28.7504 422.871,26.417 426.5,25.5C 427.5,25.5 428.5,25.5 429.5,25.5C 429.5,37.5 429.5,49.5 429.5,61.5C 428.388,64.9464 426.055,66.9464 422.5,67.5C 421.1,66.9002 420.1,65.9002 419.5,64.5C 414.112,57.7784 409.112,50.7784 404.5,43.5C 404.217,42.7109 403.717,42.0442 403,41.5C 402.5,48.4921 402.334,55.4921 402.5,62.5C 401.732,65.5616 399.732,67.2283 396.5,67.5C 394.52,55.5453 393.854,43.212 394.5,30.5C 395.928,26.1183 398.928,24.285 403.5,25C 408.72,32.0466 413.72,39.2132 418.5,46.5 Z"/></g>
<g><path style="opacity:0.346" fill="#511010" d="M 426.5,25.5 C 427.568,24.5655 428.901,24.2322 430.5,24.5C 430.216,26.4147 430.549,28.0813 431.5,29.5C 430.962,31.1172 430.629,32.7839 430.5,34.5C 430.827,43.6822 430.493,52.6822 429.5,61.5C 429.5,49.5 429.5,37.5 429.5,25.5C 428.5,25.5 427.5,25.5 426.5,25.5 Z"/></g>
<g><path style="opacity:1" fill="#f32f2f" d="M 437.5,25.5 C 446.167,25.5 454.833,25.5 463.5,25.5C 463.5,26.5 463.5,27.5 463.5,28.5C 461.869,33.8219 458.203,35.8219 452.5,34.5C 452.666,43.8393 452.5,53.1726 452,62.5C 450.029,65.6385 447.196,67.3052 443.5,67.5C 442.833,56.5 442.167,45.5 441.5,34.5C 437.833,34.5 434.167,34.5 430.5,34.5C 430.629,32.7839 430.962,31.1172 431.5,29.5C 432.708,26.9558 434.708,25.6225 437.5,25.5 Z"/></g>
<g><path style="opacity:0.243" fill="#404040" d="M 112.5,26.5 C 111.167,26.5 109.833,26.5 108.5,26.5C 108.5,38.1667 108.5,49.8333 108.5,61.5C 107.505,49.6783 107.172,37.6783 107.5,25.5C 109.415,25.2155 111.081,25.5489 112.5,26.5 Z"/></g>
<g><path style="opacity:1" fill="#e3e3e3" d="M 108.5,61.5 C 108.5,49.8333 108.5,38.1667 108.5,26.5C 109.833,26.5 111.167,26.5 112.5,26.5C 114.716,27.2026 116.549,28.5359 118,30.5C 118.333,39.8333 118.667,49.1667 119,58.5C 121.719,59.4438 124.552,59.7771 127.5,59.5C 127.109,49.767 127.609,40.1003 129,30.5C 131.55,26.8083 135.05,25.1416 139.5,25.5C 139.922,38.5606 139.422,51.5606 138,64.5C 136.363,66.8102 134.196,68.3102 131.5,69C 125.833,69.6667 120.167,69.6667 114.5,69C 111.143,67.4875 109.143,64.9875 108.5,61.5 Z"/></g>
<g><path style="opacity:1" fill="#f4f4f4" d="M 226.5,34.5 C 224.5,34.5 222.5,34.5 220.5,34.5C 220.5,43.5 220.5,52.5 220.5,61.5C 220.167,65.1667 218.167,67.1667 214.5,67.5C 213.5,67.5 212.5,67.5 211.5,67.5C 211.5,56.5 211.5,45.5 211.5,34.5C 207.5,34.5 203.5,34.5 199.5,34.5C 199.5,33.5 199.5,32.5 199.5,31.5C 200.203,29.2843 201.536,27.451 203.5,26C 213.517,25.1678 223.517,25.3344 233.5,26.5C 232.99,30.9023 230.656,33.569 226.5,34.5 Z"/></g>
<g><path style="opacity:0.69" fill="#6c6c6c" d="M 148.5,26.5 C 147.5,28.1667 146.167,29.5 144.5,30.5C 144.833,28.1667 146.167,26.8333 148.5,26.5 Z"/></g>
<g><path style="opacity:0.969" fill="#1f1904" d="M 74.5,9.5 C 62.8862,18.3138 50.8862,26.6471 38.5,34.5C 34.326,37.0877 29.9926,39.421 25.5,41.5C 41.2881,30.054 57.6215,19.3873 74.5,9.5 Z"/></g>
<g><path style="opacity:0.506" fill="#767676" d="M 187.5,31.5 C 187.5,43.5 187.5,55.5 187.5,67.5C 188.833,67.5 190.167,67.5 191.5,67.5C 190.081,68.4511 188.415,68.7845 186.5,68.5C 186.171,55.9887 186.505,43.6554 187.5,31.5 Z"/></g>
<g><path style="opacity:0.6" fill="#851b1a" d="M 394.5,30.5 C 393.854,43.212 394.52,55.5453 396.5,67.5C 395.295,68.6857 393.961,68.6857 392.5,67.5C 392.5,66.8333 392.5,66.1667 392.5,65.5C 393.167,53.8333 393.833,42.1667 394.5,30.5 Z"/></g>
<g><path style="opacity:0.129" fill="#220806" d="M 420.5,32.5 C 420.666,38.1764 420.499,43.8431 420,49.5C 419.487,48.4734 418.987,47.4734 418.5,46.5C 419.167,41.8333 419.833,37.1667 420.5,32.5 Z"/></g>
<g><path style="opacity:0.239" fill="#3a0c0b" d="M 441.5,34.5 C 442.167,45.5 442.833,56.5 443.5,67.5C 443.44,68.0431 443.107,68.3764 442.5,68.5C 441.501,57.1862 441.168,45.8529 441.5,34.5 Z"/></g>
<g><path style="opacity:0.341" fill="#515151" d="M 143.5,32.5 C 143.5,44.1667 143.5,55.8333 143.5,67.5C 144.833,67.5 146.167,67.5 147.5,67.5C 146.081,68.4511 144.415,68.7845 142.5,68.5C 142.172,56.3217 142.505,44.3217 143.5,32.5 Z"/></g>
<g><path style="opacity:0.616" fill="#838383" d="M 199.5,31.5 C 199.5,32.5 199.5,33.5 199.5,34.5C 203.5,34.5 207.5,34.5 211.5,34.5C 211.5,45.5 211.5,56.5 211.5,67.5C 212.5,67.5 213.5,67.5 214.5,67.5C 213.432,68.4345 212.099,68.7678 210.5,68.5C 210.5,57.5 210.5,46.5 210.5,35.5C 206.5,35.5 202.5,35.5 198.5,35.5C 198.232,33.901 198.566,32.5676 199.5,31.5 Z"/></g>
<g><path style="opacity:0.31" fill="#4a4a4a" d="M 226.5,34.5 C 225.081,35.4511 223.415,35.7845 221.5,35.5C 221.826,44.3494 221.493,53.0161 220.5,61.5C 220.5,52.5 220.5,43.5 220.5,34.5C 222.5,34.5 224.5,34.5 226.5,34.5 Z"/></g>
<g><path style="opacity:1" fill="#7f1364" d="M 54.5,40.5 C 57.9126,43.7203 61.5793,46.7203 65.5,49.5C 61.1667,52.1667 56.8333,54.8333 52.5,57.5C 51.8165,57.1373 51.1499,56.8039 50.5,56.5C 48.5792,49.3175 46.5792,42.1509 44.5,35C 48.5166,35.5098 51.8499,37.3432 54.5,40.5 Z"/></g>
<g><path style="opacity:1" fill="#477921" d="M 38.5,35.5 C 39.7384,37.2143 40.405,39.2143 40.5,41.5C 40.1667,41.5 39.8333,41.5 39.5,41.5C 38.8505,39.5648 38.5172,37.5648 38.5,35.5 Z"/></g>
<g><path style="opacity:0.043" fill="#250b07" d="M 290.5,42.5 C 289.833,42.1667 289.167,41.8333 288.5,41.5C 289.301,39.2071 289.968,39.5404 290.5,42.5 Z"/></g>
<g><path style="opacity:0.008" fill="#310f0b" d="M 377.5,42.5 C 376.833,42.5 376.167,42.5 375.5,42.5C 376.167,37.1667 376.833,37.1667 377.5,42.5 Z"/></g>
<g><path style="opacity:1" fill="#34320b" d="M 25.5,41.5 C 25.0269,42.9063 24.0269,43.573 22.5,43.5C 22.9731,42.0937 23.9731,41.427 25.5,41.5 Z"/></g>
<g><path style="opacity:1" fill="#8feb36" d="M 38.5,34.5 C 38.5,34.8333 38.5,35.1667 38.5,35.5C 38.5172,37.5648 38.8505,39.5648 39.5,41.5C 35.6944,43.8107 31.5278,45.4774 27,46.5C 25.9701,46.8361 25.4701,47.5028 25.5,48.5C 23.2872,48.152 21.2872,47.3187 19.5,46C 20.9423,45.6232 21.9423,44.7899 22.5,43.5C 24.0269,43.573 25.0269,42.9063 25.5,41.5C 29.9926,39.421 34.326,37.0877 38.5,34.5 Z"/></g>
<g><path style="opacity:0.647" fill="#911d1d" d="M 404.5,43.5 C 403.833,49.8333 403.167,56.1667 402.5,62.5C 402.334,55.4921 402.5,48.4921 403,41.5C 403.717,42.0442 404.217,42.7109 404.5,43.5 Z"/></g>
<g><path style="opacity:0.686" fill="#a3a3a3" d="M 175.5,67.5 C 174.432,68.4345 173.099,68.7678 171.5,68.5C 171.826,60.3159 171.492,52.3159 170.5,44.5C 170.369,43.6236 170.702,42.9569 171.5,42.5C 172.498,50.8068 172.831,59.1401 172.5,67.5C 173.5,67.5 174.5,67.5 175.5,67.5 Z"/></g>
<g><path style="opacity:0.224" fill="#333333" d="M 155.5,45.5 C 154.833,50.5 154.167,55.5 153.5,60.5C 153.334,54.8236 153.501,49.1569 154,43.5C 154.717,44.0442 155.217,44.7109 155.5,45.5 Z"/></g>
<g><path style="opacity:1" fill="#26250c" d="M 20.5,34.5 C 19.9947,37.8411 19.8281,41.1745 20,44.5C 20.6708,43.7476 21.5041,43.4142 22.5,43.5C 21.9423,44.7899 20.9423,45.6232 19.5,46C 21.2872,47.3187 23.2872,48.152 25.5,48.5C 27.2143,49.7384 29.2143,50.405 31.5,50.5C 35.2508,51.9729 38.9175,53.6396 42.5,55.5C 38.5,54.5 34.5,53.5 30.5,52.5C 28.3086,50.6465 25.9752,50.3132 23.5,51.5C 21.6053,49.5574 19.2719,48.0574 16.5,47C 17.7725,42.7195 19.1058,38.5528 20.5,34.5 Z"/></g>
<g><path style="opacity:1" fill="#6ced5d" d="M 39.5,41.5 C 39.8333,41.5 40.1667,41.5 40.5,41.5C 40.5,41.8333 40.5,42.1667 40.5,42.5C 40.762,43.9778 40.4287,45.3112 39.5,46.5C 37.2626,48.7481 34.5959,50.0814 31.5,50.5C 29.2143,50.405 27.2143,49.7384 25.5,48.5C 25.4701,47.5028 25.9701,46.8361 27,46.5C 31.5278,45.4774 35.6944,43.8107 39.5,41.5 Z"/></g>
<g><path style="opacity:0.212" fill="#250905" d="M 343.5,48.5 C 342.968,51.4596 342.301,51.7929 341.5,49.5C 342.167,49.1667 342.833,48.8333 343.5,48.5 Z"/></g>
<g><path style="opacity:1" fill="#3de88c" d="M 40.5,42.5 C 41.9448,45.9365 42.9448,49.6032 43.5,53.5C 43.6716,54.4916 43.3382,55.1583 42.5,55.5C 38.9175,53.6396 35.2508,51.9729 31.5,50.5C 34.5959,50.0814 37.2626,48.7481 39.5,46.5C 40.4287,45.3112 40.762,43.9778 40.5,42.5 Z"/></g>
<g><path style="opacity:1" fill="#da7c95" d="M 62.5,65.5 C 62.405,67.7857 61.7384,69.7857 60.5,71.5C 60.8869,66.126 61.5535,60.7926 62.5,55.5C 61.5,55.5 60.5,55.5 59.5,55.5C 61.3545,54.3104 63.1879,52.9771 65,51.5C 65.1667,52 65.3333,52.5 65.5,53C 64.1839,57.1098 63.1839,61.2765 62.5,65.5 Z"/></g>
<g><path style="opacity:1" fill="#527803" d="M 30.5,52.5 C 34.5,53.5 38.5,54.5 42.5,55.5C 40.7952,57.1921 38.7952,58.5254 36.5,59.5C 36.4142,58.5041 36.7476,57.6708 37.5,57C 35.1019,55.4758 32.7686,53.9758 30.5,52.5 Z"/></g>
<g><path style="opacity:0.869" fill="#131202" d="M 43.5,53.5 C 44.2674,54.172 44.9341,55.0053 45.5,56C 40.9384,58.7796 36.2717,61.2796 31.5,63.5C 32.9448,61.9373 34.6115,60.604 36.5,59.5C 38.7952,58.5254 40.7952,57.1921 42.5,55.5C 43.3382,55.1583 43.6716,54.4916 43.5,53.5 Z"/></g>
<g><path style="opacity:0.031" fill="#240c06" d="M 334.5,59.5 C 333.833,59.1667 333.167,58.8333 332.5,58.5C 333.301,56.2071 333.968,56.5404 334.5,59.5 Z"/></g>
<g><path style="opacity:1" fill="#98a83b" d="M 30.5,52.5 C 32.7686,53.9758 35.1019,55.4758 37.5,57C 36.7476,57.6708 36.4142,58.5041 36.5,59.5C 34.6115,60.604 32.9448,61.9373 31.5,63.5C 30.4168,63.5394 29.4168,63.8728 28.5,64.5C 27.6143,63.675 27.281,62.675 27.5,61.5C 24.2637,61.4824 21.597,60.4824 19.5,58.5C 20.5686,56.0313 21.9019,53.6979 23.5,51.5C 25.9752,50.3132 28.3086,50.6465 30.5,52.5 Z"/></g>
<g><path style="opacity:1" fill="#e82c66" d="M 59.5,55.5 C 60.5,55.5 61.5,55.5 62.5,55.5C 61.5535,60.7926 60.8869,66.126 60.5,71.5C 58.9103,73.821 56.5769,74.821 53.5,74.5C 52.6909,72.7078 52.1909,70.7078 52,68.5C 47.5103,67.2536 43.0103,67.4203 38.5,69C 36.1825,70.9927 33.5158,72.1594 30.5,72.5C 39.9944,66.5844 49.661,60.9178 59.5,55.5 Z"/></g>
<g><path style="opacity:1" fill="#9b965d" d="M 19.5,58.5 C 21.597,60.4824 24.2637,61.4824 27.5,61.5C 27.281,62.675 27.6143,63.675 28.5,64.5C 29.4168,63.8728 30.4168,63.5394 31.5,63.5C 27.8362,66.3346 23.8362,68.668 19.5,70.5C 18.596,69.791 18.2627,68.791 18.5,67.5C 16.901,67.7678 15.5676,67.4345 14.5,66.5C 15.6693,63.4887 17.336,60.822 19.5,58.5 Z"/></g>
<g><path style="opacity:1" fill="#f82f2f" d="M 465.5,61.5 C 466.5,61.5 467.5,61.5 468.5,61.5C 468.5,63.8333 468.5,66.1667 468.5,68.5C 468.167,68.5 467.833,68.5 467.5,68.5C 466.167,68.5 464.833,68.5 463.5,68.5C 463.5,66.5 463.5,64.5 463.5,62.5C 463.842,61.6618 464.508,61.3284 465.5,61.5 Z"/></g>
<g><path style="opacity:0.638" fill="#651a16" d="M 465.5,61.5 C 466.568,60.5655 467.901,60.2322 469.5,60.5C 469.806,63.3854 469.473,66.0521 468.5,68.5C 468.5,66.1667 468.5,63.8333 468.5,61.5C 467.5,61.5 466.5,61.5 465.5,61.5 Z"/></g>
<g><path style="opacity:0.129" fill="#210606" d="M 419.5,64.5 C 420.1,65.9002 421.1,66.9002 422.5,67.5C 421.791,68.404 420.791,68.7373 419.5,68.5C 419.5,67.1667 419.5,65.8333 419.5,64.5 Z"/></g>
<g><path style="opacity:0.532" fill="#777777" d="M 78.5,63.5 C 78.5,64.8333 78.5,66.1667 78.5,67.5C 84.5,67.5 90.5,67.5 96.5,67.5C 90.3554,68.4902 84.0221,68.8235 77.5,68.5C 77.2155,66.5853 77.5489,64.9187 78.5,63.5 Z"/></g>
<g><path style="opacity:0.2" fill="#2f0a09" d="M 246.5,64.5 C 246.5,65.5 246.5,66.5 246.5,67.5C 251.833,67.5 257.167,67.5 262.5,67.5C 257.025,68.4889 251.358,68.8222 245.5,68.5C 245.232,66.901 245.566,65.5676 246.5,64.5 Z"/></g>
<g><path style="opacity:0.133" fill="#2a0c08" d="M 463.5,62.5 C 463.5,64.5 463.5,66.5 463.5,68.5C 464.833,68.5 466.167,68.5 467.5,68.5C 466.081,69.4511 464.415,69.7845 462.5,69.5C 462.198,66.9407 462.532,64.6074 463.5,62.5 Z"/></g>
<g><path style="opacity:1" fill="#a38983" d="M 14.5,66.5 C 15.5676,67.4345 16.901,67.7678 18.5,67.5C 18.2627,68.791 18.596,69.791 19.5,70.5C 18.3406,72.2503 16.674,73.2503 14.5,73.5C 11.5693,73.0897 10.9026,71.7564 12.5,69.5C 12.427,67.9731 13.0937,66.9731 14.5,66.5 Z"/></g>
<g><path style="opacity:1" fill="#e14554" d="M 53.5,74.5 C 51.4006,75.6118 49.0673,76.2785 46.5,76.5C 46.5,74.8333 46.5,73.1667 46.5,71.5C 34.8618,71.6544 24.5285,75.321 15.5,82.5C 15.9569,83.2975 16.6236,83.6309 17.5,83.5C 15.0948,84.7682 12.4282,85.4349 9.5,85.5C 7.30228,85.5912 6.96895,84.9245 8.5,83.5C 8.84171,82.6618 9.50838,82.3284 10.5,82.5C 17.1667,79.1667 23.8333,75.8333 30.5,72.5C 33.5158,72.1594 36.1825,70.9927 38.5,69C 43.0103,67.4203 47.5103,67.2536 52,68.5C 52.1909,70.7078 52.6909,72.7078 53.5,74.5 Z"/></g>
<g><path style="opacity:0.984" fill="#201306" d="M 54.5,40.5 C 59.8656,43.021 64.8656,46.1877 69.5,50C 67.0507,55.2093 64.7173,60.3759 62.5,65.5C 63.1839,61.2765 64.1839,57.1098 65.5,53C 65.3333,52.5 65.1667,52 65,51.5C 63.1879,52.9771 61.3545,54.3104 59.5,55.5C 49.661,60.9178 39.9944,66.5844 30.5,72.5C 23.8333,75.8333 17.1667,79.1667 10.5,82.5C 22.9343,73.773 35.9343,65.773 49.5,58.5C 50.2975,58.0431 50.6309,57.3764 50.5,56.5C 51.1499,56.8039 51.8165,57.1373 52.5,57.5C 56.8333,54.8333 61.1667,52.1667 65.5,49.5C 61.5793,46.7203 57.9126,43.7203 54.5,40.5 Z"/></g>
<g><path style="opacity:1" fill="#75586d" d="M 12.5,69.5 C 10.9026,71.7564 11.5693,73.0897 14.5,73.5C 12.3239,75.5152 9.82389,77.1819 7,78.5C 7.77943,74.9561 9.61276,71.9561 12.5,69.5 Z"/></g>
<g><path style="opacity:1" fill="#eb6745" d="M 46.5,76.5 C 44.9582,77.3007 43.2915,77.634 41.5,77.5C 38.5193,76.174 35.5193,76.174 32.5,77.5C 29.087,79.4371 25.4203,80.6038 21.5,81C 20.0577,81.3768 19.0577,82.2101 18.5,83.5C 18.1667,83.5 17.8333,83.5 17.5,83.5C 16.6236,83.6309 15.9569,83.2975 15.5,82.5C 24.5285,75.321 34.8618,71.6544 46.5,71.5C 46.5,73.1667 46.5,74.8333 46.5,76.5 Z"/></g>
<g><path style="opacity:1" fill="#b0612b" d="M 41.5,77.5 C 34.0602,79.9444 26.3936,81.9444 18.5,83.5C 19.0577,82.2101 20.0577,81.3768 21.5,81C 25.4203,80.6038 29.087,79.4371 32.5,77.5C 35.5193,76.174 38.5193,76.174 41.5,77.5 Z"/></g>
<g><path style="opacity:0.925" fill="#321122" d="M 8.5,83.5 C 6.96895,84.9245 7.30228,85.5912 9.5,85.5C 7.39162,86.7753 5.05829,87.2753 2.5,87C 4.39113,85.5576 6.39113,84.3909 8.5,83.5 Z"/></g>
</svg>
